PathFileType	4	(X/Y/Z)	/Users/itak/Documents/Research/Walk-IL/dataset/trc/00305_00010.trc
DataRate	CameraRate	NumFrames	NumMarkers	Units	OrigDataRate	OrigDataStartFrame	OrigNumFrames
100.000000	100.000000	4	55	mm	100.000000	342	456
Frame#	Time	RPSI			LPSI			L3			STRN			T10			C7			CLAV			RBAK			LBAK			LSHO			LUPA			LAEL			LAOL			LWPS			LFRA			LIFD			LHPS			LHTS			RSHO			RUPA			RAEL			RAOL			RWTS			RWPS			RFRA			RIFD			RHPS			RBHD			LFHD			RFHD			LBHD			LHIP			RASI			LASI			LKNE			LTHI			LANK			LTIP			LTOE			LMT1			LMT5			LHEE			RKNE			RTHI			RANK			RTIP			RTOE			RMT1			RMT5			LWTS			RHTS			RHEE			RHIP			*53			*54			
		X1	Y1	Z1	X2	Y2	Z2	X3	Y3	Z3	X4	Y4	Z4	X5	Y5	Z5	X6	Y6	Z6	X7	Y7	Z7	X8	Y8	Z8	X9	Y9	Z9	X10	Y10	Z10	X11	Y11	Z11	X12	Y12	Z12	X13	Y13	Z13	X14	Y14	Z14	X15	Y15	Z15	X16	Y16	Z16	X17	Y17	Z17	X18	Y18	Z18	X19	Y19	Z19	X20	Y20	Z20	X21	Y21	Z21	X22	Y22	Z22	X23	Y23	Z23	X24	Y24	Z24	X25	Y25	Z25	X26	Y26	Z26	X27	Y27	Z27	X28	Y28	Z28	X29	Y29	Z29	X30	Y30	Z30	X31	Y31	Z31	X32	Y32	Z32	X33	Y33	Z33	X34	Y34	Z34	X35	Y35	Z35	X36	Y36	Z36	X37	Y37	Z37	X38	Y38	Z38	X39	Y39	Z39	X40	Y40	Z40	X41	Y41	Z41	X42	Y42	Z42	X43	Y43	Z43	X44	Y44	Z44	X45	Y45	Z45	X46	Y46	Z46	X47	Y47	Z47	X48	Y48	Z48	X49	Y49	Z49	X50	Y50	Z50	X51	Y51	Z51	X52	Y52	Z52	X53	Y53	Z53	X54	Y54	Z54	X55	Y55	Z55	

343	3.42	424.6204528808594	981.8777465820312	256.88037109375	252.1427307128906	980.1015014648438	217.9798736572266	322.5218505859375	1051.64599609375	221.7453765869141	373.2596130371094	1228.955810546875	-25.01594924926758	301.9380187988281	1167.113647460938	229.4898071289062	282.8615112304688	1409.414428710938	176.1160278320312	345.1755676269531	1329.169677734375	31.11469078063965	345.21142578125	1278.918090820312	252.4256286621094	179.1622619628906	1365.3271484375	155.6466979980469	161.8141021728516	1369.646606445312	53.38569259643555	98.15460968017578	1246.873657226562	33.3899040222168	129.0581359863281	1057.354125976562	-33.59258651733398	144.6689758300781	1020.316711425781	44.49124908447266	230.7105255126953	898.0158081054688	-175.4736785888672	165.0274353027344	980.3316650390625	-90.00119781494141	368.5664978027344	793.1724853515625	-243.7673492431641	272.7543334960938	833.38818359375	-219.1617431640625	326.8196411132812	871.3169555664062	-225.1057586669922	454.3504028320312	1399.582153320312	165.2348022460938	514.7054443359375	1352.605102539062	201.6341552734375	561.0957641601562	1110.104614257812	297.9924621582031	471.8041076660156	1089.230590820312	276.1957092285156	594.9300537109375	865.8428344726562	251.9657440185547	630.5384521484375	887.0532836914062	326.8083190917969	590.7100219726562	1044.820678710938	303.5404663085938	604.0343017578125	687.650634765625	306.064697265625	646.43359375	774.0745239257812	340.2366027832031	374.8627624511719	1558.38671875	170.7649536132812	276.6645202636719	1617.411376953125	-8.974353790283203	368.52490234375	1615.284545898438	3.909666061401367	229.8068389892578	1552.4423828125	148.4297637939453	171.8726196289062	932.3341674804688	131.452880859375	494.6584167480469	941.6243286132812	47.54420852661133	245.6417388916016	932.8961181640625	4.329447269439697	255.765380859375	466.6233825683594	119.0442123413086	221.1638488769531	606.6273803710938	100.9353942871094	271.7702941894531	48.43172073364258	289.90966796875	256.0890808105469	247.8076477050781	204.5552825927734	429.0777587890625	35.36253356933594	143.1969757080078	424.4663391113281	30.8350715637207	224.1343688964844	322.9007568359375	39.46901321411133	176.3509216308594	301.5907287597656	52.58052825927734	360.0333862304688	564.7725830078125	499.4472045898438	-12.47951602935791	568.3510131835938	744.620361328125	73.66267395019531	610.6886596679688	54.00344848632812	-97.99570465087891	571.633056640625	387.0801086425781	-62.5341911315918	527.7533569335938	105.8618469238281	-271.7210998535156	497.4314270019531	82.8802490234375	-213.6953582763672	614.1907958984375	69.73494720458984	-203.3938446044922	289.1648559570312	931.596923828125	-150.6685638427734	629.3001098632812	752.3688354492188	274.5741271972656	570.4891357421875	39.00589370727539	-39.86664962768555	544.5564575195312	934.7256469726562	176.0720520019531	nan	nan	nan	nan	nan	nan	
344	3.43	428.9954223632812	979.8472900390625	249.0180816650391	256.2470703125	978.6326293945312	211.3297576904297	326.5143127441406	1049.89892578125	214.8313751220703	375.7095031738281	1227.42919921875	-32.15586853027344	305.806640625	1165.704223632812	222.8658142089844	286.5673217773438	1407.911743164062	169.3769683837891	348.1746520996094	1327.686767578125	24.00312423706055	349.0931091308594	1277.494384765625	245.3983459472656	182.6653442382812	1363.904541015625	149.6116638183594	164.6450805664062	1368.106323242188	47.4434700012207	100.7905120849609	1245.222900390625	28.38514709472656	131.1846313476562	1055.78515625	-38.31136322021484	147.2339172363281	1018.491516113281	39.49392318725586	234.7802734375	900.9190063476562	-182.9838562011719	167.7644348144531	980.4340209960938	-95.70481109619141	374.8472595214844	800.6926879882812	-253.9580230712891	278.0909423828125	838.1044311523438	-228.1303558349609	331.3024291992188	877.425537109375	-233.5002288818359	457.94482421875	1398.048583984375	157.6551971435547	518.2311401367188	1351.3193359375	194.0048522949219	564.4369506835938	1109.447021484375	291.6654357910156	475.2754211425781	1088.17919921875	269.4727783203125	599.4365844726562	865.275634765625	246.0569000244141	634.4525756835938	886.5433959960938	321.1286315917969	594.2556762695312	1044.198364257812	297.4908447265625	608.808349609375	687.0604858398438	299.8207397460938	650.5957641601562	773.5812377929688	334.4934692382812	378.7484436035156	1556.466064453125	163.7882995605469	279.9305114746094	1616.045776367188	-15.41899871826172	371.8418579101562	1613.760498046875	-2.918395042419434	233.6051177978516	1550.782470703125	142.0063934326172	175.2255401611328	931.1756591796875	125.3254699707031	497.5122375488281	939.84619140625	39.03144454956055	247.9276275634766	931.4947509765625	-2.429988861083984	256.4900207519531	466.0076599121094	116.7400741577148	222.5755157470703	605.9682006835938	97.55545043945312	271.8768310546875	48.60251998901367	289.9383544921875	256.3092651367188	247.7855224609375	203.6276092529297	429.1298828125	35.25579071044922	143.2172546386719	424.4974365234375	30.82850456237793	224.0968933105469	322.9216613769531	39.51774978637695	176.3917999267578	301.6224060058594	53.04006576538086	360.045654296875	566.7713623046875	496.562744140625	-19.66885375976562	571.577392578125	741.9791259765625	65.90092468261719	609.4417114257812	54.58274841308594	-123.5359039306641	573.2869873046875	386.4818420410156	-72.89514923095703	526.1456909179688	113.9116821289062	-294.8059387207031	495.954345703125	89.26445770263672	-237.3778228759766	612.4733276367188	73.82392883300781	-228.3690948486328	292.647705078125	935.2869262695312	-157.7345581054688	634.0840454101562	751.937744140625	268.6682434082031	569.2632446289062	37.96990966796875	-65.81488037109375	548.3161010742188	932.491455078125	167.2724609375	nan	nan	nan	nan	nan	nan	
345	3.44	433.3642578125	977.6303100585938	241.0770874023438	260.374267578125	977.0585327148438	204.5948791503906	330.5211181640625	1048.002807617188	207.8309783935547	378.3009948730469	1225.77197265625	-39.3177375793457	309.6874694824219	1164.141723632812	216.1351928710938	290.247802734375	1406.290405273438	162.5591735839844	351.1830139160156	1326.02734375	16.87711143493652	352.95458984375	1275.913696289062	238.3032836914062	186.1669616699219	1362.33447265625	143.4487762451172	167.5404968261719	1366.404418945312	41.36171340942383	103.4717330932617	1243.37890625	23.29548645019531	133.2556304931641	1053.953735351562	-42.93790435791016	149.7412109375	1016.509399414062	34.71162796020508	238.5283203125	903.3308715820312	-190.1366119384766	170.345703125	980.1819458007812	-101.2001800537109	380.6010131835938	807.688232421875	-263.693359375	282.9831848144531	842.3175659179688	-236.6655426025391	335.32373046875	882.9691772460938	-241.5131225585938	461.5355834960938	1396.408203125	150.1116180419922	521.7671508789062	1349.885864257812	186.4219207763672	567.8369750976562	1108.537963867188	285.1461181640625	478.7976379394531	1086.869018554688	262.4983215332031	604.0829467773438	864.5611572265625	239.7591094970703	638.4793701171875	885.8010864257812	315.0975341796875	597.8887329101562	1043.3349609375	291.1799011230469	613.712646484375	686.2472534179688	293.0812683105469	654.8790893554688	772.85107421875	328.314697265625	382.5955200195312	1554.49267578125	156.7884063720703	283.1884460449219	1614.561279296875	-21.91592025756836	375.15087890625	1612.153686523438	-9.779457092285156	237.3659057617188	1549.021484375	135.5226898193359	178.6080169677734	929.921142578125	119.035514831543	500.4203491210938	937.9092407226562	30.47879028320312	250.2818756103516	929.9953002929688	-9.326962471008301	257.2142944335938	465.3424987792969	114.3342819213867	223.9162902832031	605.2547607421875	94.04629516601562	271.9453430175781	48.77515029907227	289.9380798339844	256.4778747558594	247.7511138916016	202.6362915039062	429.1717224121094	35.15452575683594	143.2510375976562	424.4986877441406	30.83508682250977	224.0782470703125	322.9180603027344	39.55265808105469	176.4205780029297	301.5773315429688	53.51317596435547	360.0235900878906	568.5947265625	493.5528259277344	-27.06252479553223	574.8485107421875	739.1187744140625	58.04246520996094	607.801513671875	55.34127426147461	-147.2221374511719	574.7344970703125	385.7127380371094	-82.99060821533203	525.0867919921875	121.6038360595703	-316.3558654785156	494.7328491210938	95.44572448730469	-259.6650085449219	610.945556640625	77.85160064697266	-251.3808898925781	295.8294372558594	938.46923828125	-164.5045471191406	638.9910278320312	751.3120727539062	262.3122253417969	567.350341796875	37.27498626708984	-90.10642242431641	552.0745239257812	930.0689086914062	158.4469299316406	nan	nan	nan	nan	nan	nan	
346	3.45	437.7337036132812	975.2662353515625	233.0435028076172	264.5302124023438	975.4161987304688	197.7890930175781	334.53955078125	1045.979614257812	200.7405090332031	381.0208435058594	1224.000244140625	-46.50845336914062	313.5786743164062	1162.442016601562	209.2848205566406	293.9062805175781	1404.569580078125	155.676025390625	354.1817626953125	1324.20703125	9.740158081054688	356.7987060546875	1274.185791015625	231.1363220214844	189.6807250976562	1360.64013671875	137.1646423339844	170.4981536865234	1364.570556640625	35.14131927490234	106.1893005371094	1241.378295898438	18.11469650268555	135.2920837402344	1051.89892578125	-47.48616409301758	152.2147216796875	1014.395568847656	30.11348533630371	241.9570465087891	905.2031860351562	-196.9406585693359	172.7919464111328	979.583984375	-106.5087203979492	385.8123779296875	814.0551147460938	-272.973388671875	287.4280395507812	845.9539184570312	-244.7706604003906	338.8750305175781	887.8662719726562	-249.1633148193359	465.121826171875	1394.677368164062	142.6058654785156	525.3172607421875	1348.3154296875	178.881103515625	571.3215942382812	1107.36865234375	278.4049072265625	482.3994140625	1085.308227539062	255.2795715332031	608.8414916992188	863.677978515625	233.0687561035156	642.6289672851562	884.8282470703125	308.6952819824219	601.6246337890625	1042.229858398438	284.5807189941406	618.7400512695312	685.213623046875	285.8829956054688	659.3027954101562	771.8919067382812	321.7001342773438	386.4081420898438	1552.501342773438	149.7689056396484	286.4429321289062	1612.971923828125	-28.47256851196289	378.4542541503906	1610.4775390625	-16.67770576477051	241.0918579101562	1547.193725585938	128.9849090576172	182.0176849365234	928.5912475585938	112.6053771972656	503.3672790527344	935.8328247070312	21.88078880310059	252.6850128173828	928.40673828125	-16.34874725341797	257.9686889648438	464.625	111.8020477294922	225.2164154052734	604.4852905273438	90.39420318603516	271.9727783203125	48.9683952331543	289.9037780761719	256.6319885253906	247.7078704833984	201.5565338134766	429.2083435058594	35.05525970458984	143.2975006103516	424.4734497070312	30.85548782348633	224.0701904296875	322.8946228027344	39.57516860961914	176.4314117431641	301.4723815917969	54.01482009887695	359.9702758789062	570.2389526367188	490.5220336914062	-34.78216934204102	578.1360473632812	736.1001586914062	50.0299186706543	605.8893432617188	56.07174682617188	-168.8588256835938	575.9567260742188	384.7614440917969	-92.95693969726562	524.5540161132812	128.5701904296875	-336.2550048828125	493.8003234863281	101.091926574707	-280.3843383789062	609.663818359375	81.56468963623047	-272.2885131835938	298.7203369140625	941.0948486328125	-170.9967498779297	644.0064697265625	750.484619140625	255.5177001953125	564.9300537109375	36.74684906005859	-112.49560546875	555.8377075195312	927.4993286132812	149.5878601074219	nan	nan	nan	nan	nan	nan	
